<?xml version="1.0" standalone="no"?>
<!DOCTYPE svg PUBLIC "-//W3C//DTD SVG 20010904//EN"
 "http://www.w3.org/TR/2001/REC-SVG-20010904/DTD/svg10.dtd">
<svg version="1.0" xmlns="http://www.w3.org/2000/svg"
 width="300.000000pt" height="300.000000pt" viewBox="0 0 300.000000 300.000000"
 preserveAspectRatio="xMidYMid meet">
<metadata>
Created by potrace 1.10, written by Peter Selinger 2001-2011
</metadata>
<g transform="translate(0.000000,300.000000) scale(0.100000,-0.100000)"
fill="#000000" stroke="none">
<path d="M718 2933 c-48 -55 -62 -141 -33 -210 9 -20 34 -54 57 -75 41 -37 41
-39 21 -53 -26 -18 -128 -143 -147 -180 l-15 -29 -11 28 c-5 15 -10 31 -10 35
0 16 -78 81 -120 100 -68 31 -87 28 -99 -16 -16 -55 -13 -103 8 -149 21 -46
82 -101 126 -113 34 -9 35 -15 7 -91 -24 -65 -52 -196 -52 -242 l0 -32 -32 32
c-44 42 -96 62 -160 62 -65 0 -98 -8 -98 -24 0 -7 7 -35 15 -64 30 -100 104
-154 211 -154 l61 0 12 -69 c10 -60 43 -178 66 -231 7 -17 5 -17 -29 -3 -19 8
-56 15 -80 15 -46 0 -136 -29 -169 -54 -18 -14 -18 -16 2 -54 61 -120 207
-163 327 -98 l41 23 19 -36 c10 -20 62 -80 115 -133 l96 -98 -37 6 c-73 12
-187 -63 -234 -154 -18 -34 -16 -37 51 -71 57 -28 121 -36 169 -21 58 19 116
63 144 109 14 22 31 41 38 41 7 0 38 -13 70 -29 145 -73 318 -107 506 -98 138
6 239 29 360 83 116 52 117 52 146 3 46 -75 146 -126 226 -115 41 5 112 35
141 58 16 13 -4 54 -54 109 -50 55 -106 83 -169 83 l-51 0 71 67 c39 37 92 94
116 128 32 44 49 59 60 55 46 -21 118 -43 138 -44 81 -1 174 56 212 130 l20
39 -29 21 c-69 48 -170 63 -237 35 -34 -14 -36 -14 -28 3 27 62 56 163 66 231
l11 79 29 -8 c61 -18 155 15 201 70 24 28 57 114 57 146 0 16 -33 24 -98 24
-63 0 -116 -20 -157 -60 l-31 -30 -12 89 c-6 49 -25 126 -41 172 -16 46 -28
86 -25 90 2 4 17 10 32 14 41 9 102 63 123 109 21 46 24 94 8 149 -12 44 -31
47 -99 16 -61 -27 -118 -85 -126 -126 -3 -18 -9 -33 -13 -33 -3 0 -19 22 -35
48 -15 27 -54 77 -87 112 l-59 64 40 36 c70 64 90 161 51 239 -33 63 -45 68
-92 36 -70 -49 -112 -148 -89 -209 15 -39 6 -43 -30 -13 -40 34 -187 107 -215
107 -52 0 -57 -57 -7 -81 50 -25 162 -93 162 -99 0 -3 -17 -6 -38 -6 -52 -2
-162 -63 -162 -91 0 -14 61 -69 97 -87 62 -31 167 -14 221 36 l22 22 18 -23
c45 -61 120 -176 117 -179 -2 -2 -18 4 -37 14 -64 34 -218 14 -218 -28 0 -31
36 -93 74 -126 57 -50 135 -64 209 -38 45 17 42 23 62 -104 20 -128 21 -126
-25 -87 -45 38 -97 57 -159 57 l-41 0 0 -55 c0 -118 67 -199 183 -220 20 -4
37 -9 37 -11 0 -13 -55 -172 -75 -215 -22 -49 -24 -51 -25 -24 -2 74 -88 179
-168 206 -32 11 -37 10 -53 -10 -10 -12 -23 -45 -30 -75 -17 -78 7 -153 68
-212 25 -24 56 -47 69 -50 13 -3 24 -9 24 -12 0 -16 -61 -80 -137 -144 -58
-49 -81 -74 -70 -76 27 -5 103 46 166 113 80 86 84 100 35 143 -80 70 -94 86
-110 128 -19 50 -14 118 10 143 15 14 19 14 52 -4 44 -23 81 -67 104 -120 10
-22 25 -46 34 -54 14 -12 19 -11 38 5 26 24 59 98 83 187 l18 67 -23 25 c-13
14 -30 25 -39 25 -8 0 -34 10 -58 21 -55 27 -93 83 -93 139 0 39 1 40 33 40
17 0 56 -14 86 -30 67 -37 84 -37 100 -3 23 51 -5 201 -44 231 -21 17 -31 18
-71 10 -76 -16 -133 -2 -176 43 -21 22 -38 49 -38 60 0 28 44 42 105 34 87
-11 97 -10 108 6 5 9 7 28 3 42 -9 36 -85 146 -119 171 -28 20 -28 21 -60 2
-68 -40 -89 -48 -132 -48 -51 0 -108 28 -113 56 -5 22 20 41 79 61 26 9 55 25
64 36 18 19 17 21 -29 64 -25 25 -43 45 -40 45 4 0 40 -17 80 -37 88 -45 104
-39 104 39 0 55 24 110 64 147 25 23 28 24 43 8 9 -9 18 -38 21 -70 5 -61 -7
-91 -62 -152 -20 -22 -36 -45 -36 -52 0 -24 188 -243 209 -243 6 0 29 25 51
56 47 63 93 96 130 92 22 -3 25 -9 28 -45 5 -69 -30 -123 -106 -162 -64 -33
-68 -49 -37 -147 15 -46 32 -117 40 -159 12 -70 34 -115 57 -115 5 0 32 16 60
35 46 32 57 36 107 33 49 -3 56 -6 59 -25 5 -33 -24 -80 -69 -110 -31 -20 -55
-27 -107 -29 -73 -4 -101 -24 -102 -74 0 -23 -21 -115 -51 -218 -10 -37 -9
-45 6 -61 14 -17 27 -19 88 -14 85 6 150 -13 155 -44 7 -47 -85 -112 -160
-113 -21 0 -61 9 -90 20 -29 11 -61 20 -70 20 -9 0 -34 -21 -55 -47 -21 -25
-69 -80 -108 -120 -109 -116 -109 -128 1 -158 52 -14 77 -28 111 -61 52 -50
53 -71 3 -96 -78 -40 -166 -12 -247 76 -31 34 -59 56 -72 56 -12 0 -63 -17
-114 -39 -286 -119 -572 -113 -857 18 -69 32 -84 28 -148 -39 -84 -87 -156
-109 -237 -75 -47 19 -52 38 -21 79 33 44 79 72 141 86 54 12 75 25 75 46 0 8
-35 52 -78 98 -43 47 -89 100 -103 120 -39 58 -59 63 -132 38 -34 -12 -78 -22
-97 -22 -70 1 -160 63 -160 110 0 37 132 67 201 45 25 -8 59 12 59 35 0 11
-11 57 -24 102 -13 46 -27 107 -31 137 -10 73 -31 91 -113 96 -49 2 -72 9
-102 30 -42 29 -70 73 -70 110 0 47 111 36 182 -19 19 -14 41 -26 49 -26 22 0
46 49 53 110 4 30 21 99 38 153 37 114 35 120 -37 157 -66 34 -97 78 -103 146
-5 63 6 73 62 54 32 -10 55 -32 114 -109 20 -27 26 -29 47 -19 13 6 44 36 69
67 24 31 55 67 68 81 33 34 58 72 58 86 0 6 -18 31 -41 55 -22 24 -45 54 -50
67 -14 35 -11 99 6 133 13 25 19 28 35 19 42 -23 71 -77 78 -146 10 -94 22
-99 114 -50 l73 39 -37 -39 c-21 -22 -38 -47 -38 -57 0 -19 30 -40 81 -56 43
-14 72 -42 64 -63 -4 -9 -21 -23 -39 -33 -47 -26 -128 -17 -183 19 -29 19 -48
26 -63 21 -40 -13 -140 -158 -140 -203 0 -36 23 -44 88 -31 69 14 125 4 130
-24 5 -26 -45 -87 -84 -103 -38 -16 -95 -18 -141 -5 -59 17 -91 -28 -108 -151
-8 -54 -2 -90 20 -112 13 -13 22 -11 81 20 36 19 79 34 95 34 28 0 29 -2 29
-42 0 -74 -58 -139 -137 -154 -17 -3 -42 -17 -54 -30 l-23 -25 18 -67 c25 -95
55 -160 84 -182 31 -25 46 -14 72 46 38 87 124 154 156 122 24 -24 29 -92 10
-142 -16 -42 -37 -66 -116 -134 l-35 -31 20 -36 c34 -65 185 -190 221 -183 12
2 -7 24 -69 76 -76 64 -137 128 -137 144 0 3 11 9 24 12 13 3 44 26 69 50 61
59 85 134 68 212 -7 30 -20 63 -30 75 -16 20 -21 21 -53 10 -80 -27 -167 -132
-168 -206 l-1 -30 -13 25 c-15 27 -69 179 -79 221 -6 24 -4 27 46 38 103 23
166 104 167 214 l0 57 -41 0 c-62 0 -114 -19 -159 -57 -46 -39 -45 -41 -25 87
21 128 16 121 67 103 74 -26 168 -4 219 50 27 28 59 91 59 115 0 42 -154 62
-218 28 -19 -10 -35 -16 -37 -14 -3 3 72 118 117 179 l18 23 22 -22 c54 -50
159 -67 221 -36 38 19 97 73 97 88 -1 34 -146 105 -184 90 -9 -3 -16 -2 -16 2
0 9 90 65 157 98 52 26 53 86 1 86 -30 0 -158 -63 -212 -104 l-49 -38 9 29
c24 81 -10 176 -83 226 -46 32 -46 32 -65 10z"/>
<path d="M1424 2359 c-32 -34 -97 -70 -161 -89 l-43 -13 0 -79 c0 -43 2 -78 3
-78 11 0 118 40 145 54 l32 17 0 -213 0 -213 -100 3 -100 3 0 -80 0 -81 300 0
300 0 0 81 0 80 -96 -2 -95 -2 1 322 1 321 -79 0 c-74 0 -80 -1 -108 -31z
m144 -309 c3 -351 -2 -337 116 -342 l71 -3 0 -35 0 -35 -255 0 -255 0 0 35 0
35 78 5 c118 7 117 6 117 244 0 245 -8 261 -118 219 -49 -18 -68 -9 -59 29 5
17 22 32 59 48 29 13 75 42 102 63 44 33 56 38 95 35 l46 -3 3 -295z"/>
<path d="M1046 1407 c-62 -82 -83 -187 -52 -262 25 -58 34 -41 29 48 -5 70 -2
91 15 130 24 55 43 65 77 43 69 -45 84 -160 35 -264 -16 -34 -27 -69 -24 -77
14 -35 121 -73 263 -93 120 -16 364 14 443 54 48 25 51 45 18 116 -48 101 -33
219 34 263 35 23 53 14 78 -42 18 -40 20 -59 15 -130 -7 -90 4 -107 29 -48 24
58 18 134 -16 202 -17 33 -38 67 -48 77 -18 15 -21 14 -59 -13 -113 -82 -137
-229 -55 -339 13 -19 20 -37 16 -42 -18 -17 -153 -51 -247 -62 -114 -13 -246
-1 -362 33 -84 25 -94 33 -72 56 28 32 57 107 57 152 0 89 -45 171 -118 214
l-31 17 -25 -33z"/>
<path d="M985 730 c-38 -40 -136 -87 -197 -96 l-48 -6 0 -133 c0 -101 3 -135
14 -144 21 -18 1486 -16 1498 1 4 7 8 72 8 144 l0 132 -47 7 c-65 9 -142 45
-190 89 l-40 36 -62 -25 c-115 -47 -216 -66 -376 -72 -114 -4 -173 -1 -245 11
-79 14 -211 53 -270 80 -11 4 -26 -4 -45 -24z m96 -36 c264 -93 521 -97 793
-13 l98 31 42 -30 c51 -36 120 -72 140 -72 8 0 27 -5 41 -12 24 -11 25 -14 25
-114 0 -84 -3 -103 -16 -108 -20 -8 -1371 -7 -1401 1 -22 5 -23 10 -23 108 l0
103 28 10 c15 6 49 18 75 28 26 9 69 32 95 50 26 19 50 34 53 34 4 0 26 -7 50
-16z"/>
<path d="M220 581 c-5 -11 -10 -25 -10 -31 0 -6 36 -59 80 -116 44 -58 80
-107 80 -110 0 -2 -36 -52 -80 -111 -80 -106 -90 -129 -68 -151 16 -16 540
-17 570 -1 25 13 48 68 48 114 0 35 -1 35 -42 35 -70 0 -113 17 -151 59 -42
47 -50 84 -45 229 l3 102 -187 0 c-175 0 -188 -1 -198 -19z m338 -25 c8 -5 12
-40 11 -100 0 -51 2 -108 6 -128 13 -69 93 -139 174 -151 19 -3 38 -10 44 -16
15 -15 -8 -60 -35 -70 -13 -5 -128 -9 -256 -10 -200 -1 -233 1 -238 14 -4 9
15 44 48 88 81 109 90 126 84 153 -4 13 -36 64 -71 112 -36 48 -65 92 -65 99
0 6 15 13 33 15 57 6 253 1 265 -6z"/>
<path d="M2398 498 c5 -145 -3 -182 -45 -229 -38 -42 -81 -59 -150 -59 -42 0
-43 0 -43 -35 0 -46 23 -101 48 -114 30 -16 554 -15 570 1 22 22 12 45 -68
151 -44 59 -80 108 -80 111 0 2 36 52 80 110 123 163 121 166 -130 166 l-185
0 3 -102z m280 63 c44 -1 62 -5 62 -14 0 -7 -29 -51 -64 -98 -36 -46 -67 -96
-71 -111 -8 -29 0 -44 83 -155 32 -42 52 -79 49 -87 -9 -22 -456 -22 -497 -1
-53 28 -45 85 12 85 28 0 90 28 116 53 47 44 62 89 63 194 2 147 -3 142 114
138 39 -1 98 -3 133 -4z"/>
</g>
</svg>
