<?xml version="1.0" standalone="no"?>
<!DOCTYPE svg PUBLIC "-//W3C//DTD SVG 20010904//EN"
 "http://www.w3.org/TR/2001/REC-SVG-20010904/DTD/svg10.dtd">
<svg version="1.0" xmlns="http://www.w3.org/2000/svg"
 width="300.000000pt" height="300.000000pt" viewBox="0 0 300.000000 300.000000"
 preserveAspectRatio="xMidYMid meet">
<metadata>
Created by potrace 1.10, written by Peter Selinger 2001-2011
</metadata>
<g transform="translate(0.000000,300.000000) scale(0.100000,-0.100000)"
fill="#000000" stroke="none">
<path d="M1310 2936 c-307 -65 -563 -263 -700 -541 -196 -397 -114 -850 210
-1159 50 -47 95 -86 101 -86 5 0 9 -181 9 -473 0 -490 1 -497 40 -497 10 0
106 61 214 136 l198 135 61 -40 62 -41 5 226 c5 222 5 226 29 245 32 26 67 24
96 -6 l25 -24 0 -269 0 -270 66 -41 c36 -22 66 -41 67 -41 1 0 1 107 -1 237
-3 254 1 282 44 302 37 16 52 14 79 -14 l25 -24 0 -300 0 -299 36 -21 c50 -30
82 -28 95 6 6 17 9 215 9 545 l-2 518 88 82 c110 105 174 189 229 303 157 322
128 694 -78 1000 -53 78 -175 200 -256 255 -85 57 -208 114 -306 140 -102 28
-345 37 -445 16z m397 -45 c498 -109 826 -595 738 -1093 -18 -106 -35 -158
-86 -264 -51 -106 -116 -190 -228 -295 l-91 -85 -1 -495 c0 -272 -1 -509 -2
-528 -2 -39 -18 -49 -41 -26 -14 14 -16 52 -16 292 0 302 -3 323 -59 356 -44
26 -86 22 -123 -12 l-33 -29 -5 -215 c-3 -119 -8 -218 -11 -221 -10 -10 -37 4
-44 22 -3 9 -6 123 -6 254 0 131 -4 249 -9 263 -27 72 -119 99 -172 50 -39
-36 -48 -82 -48 -257 0 -166 -2 -174 -44 -143 -34 26 -62 17 -163 -52 -237
-161 -271 -183 -281 -183 -15 0 -24 33 -22 78 1 20 2 218 1 440 l-1 402 -109
108 c-106 104 -174 195 -219 295 -169 367 -95 785 189 1074 235 239 559 336
886 264z"/>
<path d="M1372 2729 c-162 -28 -306 -104 -426 -224 -110 -109 -169 -214 -213
-376 -21 -78 -23 -260 -4 -339 59 -249 226 -456 452 -558 149 -68 352 -85 514
-43 73 19 208 78 245 108 104 83 135 112 179 170 96 129 145 244 162 388 30
242 -47 466 -220 644 -105 108 -209 171 -352 211 -85 24 -256 34 -337 19z
m291 -45 c154 -34 313 -131 411 -250 108 -130 164 -274 173 -440 12 -218 -61
-414 -212 -567 -295 -300 -770 -301 -1069 -3 -228 229 -281 587 -129 877 96
186 280 329 485 380 94 23 246 24 341 3z"/>
<path d="M1364 2545 c-174 -38 -331 -164 -410 -330 -112 -233 -71 -492 106
-679 78 -81 147 -126 252 -164 63 -22 89 -26 188 -26 99 0 125 4 188 26 105
38 174 83 252 164 177 187 218 446 106 679 -61 127 -153 220 -283 284 -118 59
-264 76 -399 46z m325 -55 c177 -59 323 -219 366 -402 30 -129 9 -298 -52
-411 -58 -106 -184 -217 -291 -256 -231 -85 -471 -29 -631 146 -222 242 -198
604 53 822 50 43 132 89 199 110 99 33 242 29 356 -9z"/>
<path d="M1420 2463 c-294 -45 -495 -346 -421 -630 52 -202 205 -349 406 -390
350 -71 675 257 601 607 -58 273 -316 455 -586 413z m223 -53 c188 -58 322
-228 334 -426 9 -141 -35 -261 -133 -365 -188 -197 -500 -197 -688 0 -98 104
-142 224 -133 365 19 308 324 517 620 426z"/>
<path d="M1411 2256 c-50 -18 -106 -69 -130 -120 -11 -25 -21 -52 -21 -59 0
-9 23 -18 64 -25 85 -16 86 -16 86 14 0 34 50 84 85 84 34 0 75 -42 75 -76 0
-65 -46 -116 -220 -243 l-85 -62 -5 -69 -5 -70 243 0 242 0 0 71 0 71 -140 -4
c-131 -3 -167 2 -120 17 26 8 167 114 202 151 97 104 65 264 -64 319 -44 18
-158 19 -207 1z m212 -49 c57 -34 81 -82 75 -148 -7 -64 -37 -102 -153 -190
-138 -103 -129 -131 44 -139 l106 -5 3 -27 c3 -25 0 -28 -30 -29 -59 -3 -362
1 -365 5 -8 7 -12 48 -6 62 3 8 49 47 102 87 153 115 201 172 201 240 0 73
-44 117 -117 117 -31 0 -44 -8 -79 -46 -65 -69 -116 -51 -68 23 50 78 196 103
287 50z"/>
</g>
</svg>
