<?xml version="1.0" standalone="no"?>
<!DOCTYPE svg PUBLIC "-//W3C//DTD SVG 20010904//EN"
 "http://www.w3.org/TR/2001/REC-SVG-20010904/DTD/svg10.dtd">
<svg version="1.0" xmlns="http://www.w3.org/2000/svg"
 width="300.000000pt" height="300.000000pt" viewBox="0 0 300.000000 300.000000"
 preserveAspectRatio="xMidYMid meet">
<metadata>
Created by potrace 1.10, written by Peter Selinger 2001-2011
</metadata>
<g transform="translate(0.000000,300.000000) scale(0.100000,-0.100000)"
fill="#000000" stroke="none">
<path d="M260 2954 c0 -1 33 -61 73 -135 40 -74 178 -329 307 -567 188 -350
236 -432 249 -426 9 4 48 9 86 11 65 4 97 -2 166 -31 13 -6 23 5 43 51 16 33
46 76 73 100 l45 42 -168 475 -169 475 -353 3 c-193 2 -352 3 -352 2z m671
-53 c9 -9 24 -36 33 -61 8 -25 31 -90 51 -145 62 -171 159 -443 224 -630 l18
-50 -46 -55 c-25 -30 -51 -64 -57 -75 -9 -15 -20 -19 -45 -17 -19 2 -77 4
-129 5 l-95 3 -38 69 c-21 39 -63 117 -94 175 -31 58 -73 136 -95 173 -21 38
-38 71 -38 74 0 2 -17 35 -38 71 -22 37 -63 112 -92 167 -29 55 -71 134 -94
175 -60 110 -67 128 -53 133 7 3 137 5 291 4 237 -1 281 -3 297 -16z"/>
<path d="M2385 2952 l-350 -3 -169 -475 -168 -475 45 -42 c27 -24 57 -67 73
-100 20 -46 30 -57 43 -51 69 29 101 35 166 31 39 -2 77 -7 86 -11 13 -6 54
63 214 361 110 202 247 458 307 567 59 110 107 200 105 200 -1 1 -159 0 -352
-2z m274 -47 c6 -7 -6 -37 -36 -90 -25 -44 -74 -136 -110 -205 -36 -69 -69
-129 -73 -135 -6 -9 -165 -302 -278 -515 -50 -93 -44 -89 -121 -83 -41 3 -89
1 -122 -7 -51 -12 -54 -12 -68 9 -9 12 -35 47 -58 77 -24 29 -43 59 -43 66 0
9 139 409 221 633 42 118 89 249 89 251 0 16 584 15 599 -1z"/>
<path d="M1400 1889 c-46 -18 -80 -62 -110 -141 -16 -42 -30 -79 -30 -81 0 -2
36 6 80 16 70 18 80 23 89 48 9 28 13 29 71 29 58 0 62 -1 71 -29 9 -25 19
-30 89 -48 44 -10 80 -17 80 -14 0 3 -12 37 -26 76 -30 78 -63 121 -111 141
-37 16 -166 18 -203 3z m207 -49 c32 -19 63 -66 63 -95 0 -26 -41 -17 -81 20
-34 30 -46 35 -89 35 -43 0 -55 -5 -89 -35 -63 -58 -101 -43 -66 26 26 50 69
69 155 69 57 0 83 -5 107 -20z"/>
<path d="M1970 1700 c-14 -4 -54 -21 -89 -37 l-63 -30 48 -28 c27 -15 57 -34
66 -42 14 -13 22 -13 53 -2 37 14 37 13 76 -29 39 -41 39 -42 25 -76 -12 -28
-12 -36 0 -47 7 -8 26 -38 43 -68 l29 -54 36 78 c40 86 45 137 20 190 -23 50
-114 131 -160 144 -44 12 -49 12 -84 1z m88 -46 c43 -17 97 -67 118 -106 26
-50 11 -158 -22 -158 -20 0 -29 21 -29 77 -1 48 -4 56 -43 94 -40 38 -46 41
-86 37 -53 -6 -98 19 -72 41 15 12 60 29 84 30 7 1 29 -6 50 -15z"/>
<path d="M915 1684 c-49 -25 -114 -95 -131 -141 -21 -55 -15 -99 26 -186 l33
-69 28 53 c16 29 36 61 45 70 12 13 13 22 5 38 -19 34 -12 58 24 90 40 35 44
36 79 19 22 -9 31 -7 63 15 21 14 50 31 66 38 15 7 27 15 27 18 0 3 -33 21
-73 39 -81 36 -144 41 -192 16z m148 -36 c32 -13 34 -22 6 -42 -13 -9 -33 -12
-54 -9 -67 11 -138 -58 -139 -136 -2 -76 -32 -97 -54 -38 -26 72 -13 116 53
181 65 63 109 74 188 44z"/>
<path d="M1422 1569 c-131 -17 -247 -74 -343 -170 -241 -240 -238 -629 7 -859
191 -178 446 -217 682 -104 100 48 211 157 265 260 121 233 78 515 -107 699
-137 136 -317 198 -504 174z m211 -48 c205 -53 354 -196 411 -395 26 -90 23
-239 -8 -326 -60 -172 -178 -295 -346 -359 -56 -21 -82 -25 -185 -25 -105 0
-129 3 -192 26 -232 85 -373 288 -373 537 0 80 5 110 29 178 63 183 205 314
392 362 95 25 177 26 272 2z"/>
<path d="M1425 1350 c-53 -13 -79 -27 -122 -64 -47 -41 -88 -116 -78 -145 7
-24 56 -47 119 -56 46 -6 50 -5 85 28 35 35 48 41 84 38 12 -1 17 -9 17 -30 0
-33 -14 -41 -70 -41 -57 0 -80 -29 -80 -97 0 -70 29 -103 90 -103 23 0 50 -5
61 -10 26 -14 25 -56 -2 -70 -32 -18 -70 -3 -110 43 l-36 41 -79 -11 c-59 -9
-83 -16 -96 -33 -16 -20 -16 -24 3 -73 41 -109 149 -175 289 -178 117 -2 189
21 250 83 42 42 60 85 60 147 0 62 -13 98 -51 137 -19 20 -27 36 -23 47 3 9
10 17 14 17 19 0 43 90 37 140 -8 66 -30 104 -79 140 -72 52 -192 74 -283 50z
m215 -51 c80 -36 112 -81 113 -159 1 -74 -34 -117 -118 -145 -16 -6 -11 -10
26 -21 87 -26 134 -112 110 -202 -16 -56 -43 -87 -107 -118 -46 -22 -70 -27
-137 -28 -45 -1 -103 5 -129 13 -62 18 -125 73 -154 135 l-24 51 48 7 c26 4
64 9 85 12 31 5 37 3 37 -11 1 -39 56 -83 105 -83 86 0 130 93 69 148 -20 18
-37 22 -87 22 l-62 0 1 62 2 63 36 -3 c103 -9 165 68 102 127 -44 41 -134 23
-151 -30 -6 -19 -12 -21 -52 -15 -25 3 -53 6 -62 6 -38 1 -44 15 -23 56 26 51
66 88 122 113 63 29 187 29 250 0z"/>
<path d="M790 1210 c-8 -6 -43 -19 -77 -31 -71 -23 -116 -66 -132 -126 -23
-82 -7 -179 37 -226 33 -35 40 -39 126 -71 l68 -26 -7 28 c-5 15 -13 52 -20
82 -9 41 -16 56 -31 59 -35 6 -44 22 -44 78 0 52 1 54 35 69 26 10 35 20 35
37 0 13 7 47 16 76 17 58 16 65 -6 51z m-45 -97 c-3 -14 -19 -36 -35 -49 -20
-17 -31 -38 -35 -67 -8 -51 3 -82 44 -124 17 -18 31 -42 31 -54 0 -18 -4 -20
-27 -14 -73 18 -113 79 -113 172 0 78 24 122 81 150 50 24 63 21 54 -14z"/>
<path d="M2196 1192 c4 -15 12 -51 19 -81 9 -46 15 -55 43 -67 30 -12 32 -16
32 -67 0 -56 -9 -72 -44 -78 -15 -3 -22 -18 -31 -59 -7 -30 -15 -67 -19 -82
l-8 -27 78 29 c124 47 164 101 164 221 0 60 -25 122 -61 156 -13 12 -59 35
-102 52 l-79 30 8 -27z m118 -65 c53 -30 76 -77 76 -152 0 -40 -6 -72 -19 -95
-17 -33 -81 -79 -110 -80 -21 0 -4 51 30 86 22 22 31 44 35 81 6 47 4 53 -29
90 -39 43 -58 93 -36 93 8 0 32 -10 53 -23z"/>
<path d="M810 593 c-59 -126 -54 -178 23 -261 95 -101 161 -112 287 -48 l64
33 -34 18 c-19 9 -50 28 -68 42 -29 22 -35 23 -67 12 -33 -12 -36 -12 -70 21
-37 35 -42 58 -24 91 8 16 7 25 -5 38 -9 9 -29 41 -45 70 l-28 53 -33 -69z
m61 -54 c6 -12 8 -35 5 -51 -13 -64 59 -138 135 -138 45 -1 86 -21 75 -38 -3
-5 -26 -15 -51 -22 -67 -19 -112 -2 -169 61 -48 53 -63 97 -52 151 11 56 37
73 57 37z"/>
<path d="M2145 638 c-4 -13 -23 -44 -41 -71 -33 -46 -34 -48 -19 -77 15 -30
15 -31 -24 -72 -39 -42 -40 -43 -75 -30 -33 12 -38 11 -68 -11 -18 -14 -49
-33 -68 -42 l-34 -18 64 -33 c121 -61 178 -55 269 30 91 86 102 145 47 264
-40 87 -42 90 -51 60z m32 -109 c17 -32 16 -94 -1 -128 -16 -29 -82 -93 -113
-108 -35 -18 -87 -14 -123 8 -32 20 -33 22 -15 35 10 8 40 14 66 14 37 0 55 6
79 26 42 36 61 76 54 112 -7 33 11 75 29 69 7 -2 18 -14 24 -28z"/>
<path d="M1260 281 c0 -5 13 -41 29 -81 50 -123 89 -150 212 -150 89 0 144 21
174 67 14 20 65 152 65 166 0 2 -18 -1 -40 -9 -21 -8 -56 -16 -77 -20 -30 -5
-41 -13 -53 -37 -14 -30 -18 -32 -70 -32 -52 0 -56 2 -69 31 -12 28 -21 33
-75 44 -33 7 -69 16 -78 21 -11 6 -18 6 -18 0z m147 -95 c57 -54 129 -54 188
0 65 60 100 35 52 -37 -32 -48 -70 -64 -153 -63 -96 0 -141 30 -159 107 -6 23
-4 27 14 27 11 0 37 -16 58 -34z"/>
</g>
</svg>
